<?xml version="1.0" standalone="no"?>
<!DOCTYPE svg PUBLIC "-//W3C//DTD SVG 20010904//EN"
 "http://www.w3.org/TR/2001/REC-SVG-20010904/DTD/svg10.dtd">
<svg version="1.0" xmlns="http://www.w3.org/2000/svg"
 width="1280.000000pt" height="1280.000000pt" viewBox="0 0 1280.000000 1280.000000"
 preserveAspectRatio="xMidYMid meet">
<metadata>
Created by potrace 1.15, written by Peter Selinger 2001-2017
</metadata>
<g transform="translate(0.000000,1280.000000) scale(0.100000,-0.100000)"
fill="#000000" stroke="none">
<path d="M5807 9523 c-3 -2 -16 -6 -29 -7 -96 -12 -136 -18 -153 -26 -11 -5
-54 -16 -95 -25 -74 -16 -144 -37 -177 -53 -10 -5 -40 -19 -68 -32 -27 -12
-67 -31 -88 -41 -22 -10 -43 -19 -49 -19 -5 0 -46 -25 -90 -55 -44 -30 -81
-55 -84 -55 -5 0 -39 -28 -66 -52 -10 -10 -21 -18 -24 -18 -6 0 -113 -100
-172 -160 -74 -77 -225 -333 -235 -399 -2 -10 -9 -26 -16 -34 -7 -9 -11 -21
-10 -29 3 -15 -19 -98 -30 -113 -4 -5 -7 -32 -8 -60 l-1 -50 11 55 c7 30 15
60 18 65 6 10 21 76 24 107 1 10 7 23 12 30 5 7 18 36 28 63 10 28 25 61 34
75 9 14 25 43 36 65 54 111 203 288 295 352 14 10 36 28 50 40 14 13 30 23 37
23 6 0 13 4 15 9 8 21 207 142 232 141 6 -1 -2 -8 -19 -17 -65 -34 -133 -84
-169 -123 -37 -41 -39 -59 -8 -61 14 0 13 -2 -3 -9 -19 -7 -18 -9 8 -19 24
-10 31 -22 30 -58 -1 -7 3 -10 8 -8 5 3 14 -3 20 -14 7 -10 19 -17 26 -14 9 4
11 0 7 -11 -8 -20 21 -66 42 -66 10 0 13 -6 9 -19 -3 -12 0 -21 10 -25 9 -3
13 -11 9 -18 -5 -8 -2 -9 9 -5 10 4 16 2 14 -6 -1 -7 5 -11 13 -9 12 3 13 1 3
-9 -18 -18 -16 -27 4 -25 13 1 18 -6 17 -25 -2 -43 42 -29 127 43 25 21 49 38
53 38 5 0 37 20 72 45 35 24 64 41 64 37 0 -4 -24 -23 -53 -42 -50 -34 -85
-61 -113 -87 -7 -7 -15 -13 -18 -13 -15 0 -286 -264 -286 -279 0 -6 -6 -11
-12 -11 -7 0 -21 -12 -30 -28 -16 -25 -66 -90 -106 -137 -47 -55 -140 -199
-199 -305 -14 -25 -34 -59 -45 -77 -27 -46 -70 -157 -55 -144 7 5 21 34 31 63
11 29 22 58 26 63 5 6 20 33 35 60 39 71 136 226 159 252 10 11 17 24 17 27
-1 4 10 19 24 34 13 15 53 63 87 107 76 96 258 278 373 372 55 45 302 213 313
213 4 0 33 16 66 35 32 20 63 34 69 32 9 -3 -58 -50 -73 -51 -13 -2 -214 -147
-290 -209 -84 -69 -235 -218 -297 -294 -93 -113 -134 -167 -164 -217 -53 -88
-97 -168 -114 -206 -9 -19 -27 -57 -41 -83 -13 -27 -24 -55 -24 -62 0 -7 -6
-18 -13 -24 -8 -6 -19 -30 -26 -53 -6 -24 -16 -52 -21 -63 -41 -91 -52 -122
-56 -158 -3 -23 -9 -46 -15 -51 -5 -6 -9 -20 -9 -32 0 -13 -4 -25 -9 -29 -6
-3 -10 -13 -9 -23 0 -22 -18 -118 -31 -161 -6 -19 -9 -36 -7 -39 4 -4 36 100
41 133 6 44 27 131 35 150 5 11 14 40 20 65 14 55 38 123 62 169 10 20 18 41
18 48 0 12 25 65 123 258 39 77 68 125 95 153 6 7 12 19 12 25 0 12 66 99 158
207 90 106 267 271 365 340 72 50 87 53 21 3 -83 -62 -214 -184 -228 -212 -7
-14 -12 -33 -11 -41 1 -8 3 -21 3 -27 1 -7 9 -13 17 -13 8 0 15 -7 15 -16 0
-9 6 -14 13 -11 8 3 14 -1 14 -8 0 -7 -6 -11 -14 -8 -28 11 -11 -6 22 -21 20
-10 33 -21 30 -26 -3 -5 3 -13 12 -19 10 -6 12 -11 6 -11 -7 0 -13 -5 -13 -11
0 -6 6 -9 14 -6 10 4 12 0 9 -14 -4 -12 0 -19 10 -19 16 0 38 -22 41 -42 1 -7
6 -19 10 -27 7 -11 6 -12 -5 -6 -11 7 -11 6 1 -9 13 -17 14 -17 21 1 6 14 8
12 8 -10 1 -19 5 -26 13 -21 8 5 9 0 6 -14 -4 -12 -3 -20 2 -17 11 7 41 -30
33 -40 -5 -4 1 -5 12 -1 11 4 16 4 12 0 -4 -4 -1 -14 6 -22 10 -13 9 -15 -3
-8 -8 4 -1 -5 15 -19 17 -15 24 -24 16 -19 -9 4 -7 -2 5 -18 10 -14 24 -23 29
-20 6 3 3 -3 -5 -13 -9 -11 -10 -16 -2 -11 6 4 12 2 12 -3 0 -6 6 -10 12 -8 7
1 14 -9 16 -22 2 -13 12 -26 23 -28 22 -6 24 -14 7 -32 -11 -11 -10 -13 5 -8
10 4 16 3 12 -2 -3 -6 2 -14 11 -19 9 -5 15 -12 15 -15 -3 -21 1 -27 14 -27 8
0 14 -3 13 -7 -3 -16 14 -43 27 -43 7 0 12 -8 11 -17 -2 -10 4 -24 13 -31 9
-8 11 -11 4 -8 -6 4 -14 2 -17 -3 -4 -5 4 -12 16 -14 20 -4 19 -4 -5 -6 -16 0
-26 -5 -22 -11 4 -6 11 -7 18 -3 6 3 1 -7 -11 -24 -21 -30 -56 -62 -100 -92
-12 -8 -19 -18 -17 -22 3 -4 -10 -14 -28 -23 -17 -9 -51 -32 -75 -51 -24 -19
-62 -40 -85 -46 -23 -6 -56 -18 -74 -25 -17 -8 -44 -14 -60 -14 -15 0 -37 -7
-47 -15 -11 -8 -34 -15 -50 -15 -45 0 -92 -33 -116 -82 -38 -77 -65 -123 -77
-131 -7 -4 -13 -18 -13 -31 0 -12 -11 -56 -25 -96 -14 -40 -23 -75 -21 -77 2
-3 0 -19 -5 -36 -12 -38 -13 -308 -2 -355 5 -20 8 42 8 150 0 190 7 263 29
307 7 14 19 44 26 66 13 40 60 146 70 155 3 3 14 22 25 43 11 21 25 42 30 47
10 8 141 45 261 73 30 7 128 58 132 68 2 5 10 9 18 9 8 0 14 5 14 10 0 6 5 10
11 10 33 0 243 209 273 271 5 11 13 19 18 19 4 0 8 7 8 15 0 8 5 15 10 15 6 0
10 7 10 15 0 8 4 15 9 15 5 0 11 8 15 18 7 20 51 99 65 116 5 6 51 94 103 196
111 218 110 217 132 255 9 17 30 56 47 88 18 31 36 57 40 57 5 0 9 7 9 15 0
17 85 147 139 214 77 93 179 187 273 247 53 35 101 64 106 64 4 0 32 11 60 25
29 14 59 25 68 25 25 0 75 33 72 48 -6 28 -350 141 -476 157 -24 3 -52 10 -62
15 -10 5 -33 12 -51 14 -19 3 -65 10 -104 17 -68 12 -648 23 -658 12z"/>
<path d="M7903 8430 c-19 -11 -35 -31 -39 -47 -19 -84 -27 -105 -62 -149 -21
-27 -55 -77 -76 -110 -21 -34 -46 -71 -57 -82 -10 -12 -31 -38 -46 -60 -16
-21 -55 -73 -88 -116 -33 -43 -69 -92 -80 -110 -24 -38 -68 -98 -110 -147 -16
-20 -38 -47 -48 -60 -91 -121 -150 -198 -167 -217 -11 -13 -20 -28 -20 -32 0
-5 -6 -13 -13 -17 -7 -4 -21 -21 -31 -38 -10 -16 -36 -53 -57 -81 -22 -28 -39
-58 -39 -67 0 -8 47 -46 108 -85 59 -39 121 -82 138 -96 18 -14 42 -26 54 -26
21 0 59 35 60 55 0 6 14 25 30 43 17 18 30 38 30 43 0 5 8 22 19 37 10 15 30
48 45 75 15 26 31 47 36 47 6 0 10 6 10 14 0 34 25 35 67 3 23 -18 42 -35 43
-39 0 -3 -11 -19 -24 -35 -14 -16 -28 -41 -31 -56 -4 -15 -11 -27 -15 -27 -4
0 -15 -15 -23 -33 -9 -18 -29 -49 -44 -69 -15 -20 -44 -60 -63 -88 -19 -28
-45 -64 -57 -79 -13 -16 -23 -34 -23 -40 0 -25 -11 -19 -205 119 -38 27 -75
54 -81 59 -6 5 -51 34 -100 65 -49 31 -102 67 -118 79 l-29 24 19 31 c10 18
21 32 25 32 4 0 24 26 45 57 22 32 49 69 62 83 12 14 33 40 45 57 13 20 31 33
43 33 55 0 90 80 60 138 -43 83 -176 53 -176 -41 0 -12 -17 -41 -38 -64 -40
-44 -119 -151 -140 -189 -7 -13 -17 -24 -22 -24 -4 0 -19 -17 -31 -37 -28 -47
-120 -167 -131 -171 -4 -2 -8 -10 -8 -18 0 -8 -4 -14 -8 -14 -5 0 -17 -15 -27
-34 -23 -42 -17 -52 64 -105 78 -52 155 -105 361 -249 30 -21 83 -57 117 -81
l62 -42 -19 -22 c-11 -11 -20 -24 -20 -27 0 -4 -10 -18 -22 -32 -53 -58 -78
-88 -78 -94 0 -3 -6 -11 -12 -18 -32 -33 -112 -129 -153 -184 -25 -34 -51 -62
-58 -62 -13 0 -87 47 -87 56 0 6 84 116 104 137 29 29 156 201 156 211 0 6
-12 21 -27 34 -39 31 -207 148 -240 167 -16 9 -41 26 -58 38 -16 12 -64 47
-105 77 -41 31 -96 69 -122 85 -46 29 -58 48 -38 60 6 4 26 30 45 58 60 91 97
142 106 145 5 2 9 8 9 14 0 8 36 61 65 95 6 6 26 34 45 62 29 41 40 50 65 51
42 0 70 34 70 86 0 54 -24 81 -80 89 -30 5 -52 2 -74 -10 -31 -16 -57 -58 -46
-75 7 -11 -70 -116 -210 -292 -8 -9 -22 -29 -32 -45 -9 -15 -20 -30 -23 -33
-4 -3 -30 -45 -58 -95 l-52 -90 29 -25 c16 -14 52 -41 81 -60 28 -19 83 -59
121 -88 38 -29 107 -75 152 -104 45 -28 84 -54 87 -58 3 -3 31 -23 63 -44 31
-21 59 -42 62 -46 3 -4 -11 -28 -31 -52 -56 -68 -58 -71 -111 -139 -27 -35
-76 -102 -108 -149 -82 -118 -79 -115 -111 -85 -14 13 -30 22 -35 19 -5 -3
-12 1 -15 10 -6 15 48 98 161 246 39 50 64 93 63 105 -2 10 -23 34 -48 52 -25
18 -50 37 -55 41 -6 5 -24 17 -40 27 -17 10 -40 27 -52 38 -12 11 -31 25 -41
31 -11 6 -72 52 -136 101 -64 50 -134 102 -156 118 l-39 27 41 68 c69 116 107
175 128 199 11 13 20 25 20 28 0 2 14 25 32 50 21 30 39 45 54 45 15 0 30 12
44 35 19 30 20 39 10 70 -23 71 -112 99 -163 51 -14 -13 -28 -35 -31 -48 -3
-12 -7 -35 -10 -49 -3 -14 -17 -38 -31 -53 -14 -15 -25 -33 -25 -40 0 -7 -9
-24 -21 -37 -12 -13 -30 -42 -41 -64 -11 -22 -36 -61 -54 -86 -19 -26 -41 -62
-49 -80 -19 -43 -37 -72 -50 -81 -10 -7 53 -69 127 -125 24 -18 79 -61 124
-95 99 -77 116 -89 227 -171 l88 -64 -26 -31 c-14 -16 -25 -35 -25 -41 0 -21
-22 -11 -108 51 -78 55 -219 164 -232 179 -3 3 -26 20 -52 38 -27 17 -48 36
-48 41 0 6 -7 10 -15 10 -8 0 -19 9 -25 21 -7 11 -14 18 -17 15 -5 -5 -98 67
-166 130 -42 38 -45 38 -52 4 -2 -12 -2 -20 2 -17 12 13 42 -13 38 -34 -2 -12
2 -22 11 -26 13 -5 13 -7 2 -14 -10 -7 -11 -9 0 -9 7 0 10 -4 7 -10 -4 -6 1
-7 11 -3 11 4 15 2 11 -4 -7 -12 5 -25 99 -108 37 -33 79 -70 92 -82 12 -13
26 -23 30 -23 4 -1 25 -19 47 -40 22 -22 45 -40 50 -40 6 0 23 -14 38 -29 16
-16 56 -49 89 -73 111 -79 115 -83 97 -105 -9 -10 -19 -26 -22 -35 -9 -24 -44
-23 -57 2 -6 11 -17 20 -25 20 -8 0 -15 5 -15 11 0 5 -4 7 -10 4 -5 -3 -10 -1
-10 4 0 6 -6 11 -14 11 -8 0 -16 7 -19 15 -4 8 -23 25 -44 38 -21 13 -53 38
-72 56 -18 17 -37 31 -42 31 -5 0 -9 5 -9 11 0 5 -4 8 -9 5 -4 -3 -17 4 -27
15 -10 12 -32 28 -48 36 -28 14 -29 14 -23 -6 2 -11 0 -22 -7 -24 -6 -3 -2 -8
8 -13 13 -5 21 -3 24 4 2 7 7 12 12 12 4 0 3 -11 -3 -24 -7 -13 -16 -22 -22
-18 -5 3 -4 -1 2 -10 7 -8 10 -18 6 -21 -3 -4 0 -7 8 -7 8 0 36 -22 62 -50 26
-27 47 -47 47 -43 0 3 7 0 15 -7 13 -11 11 -19 -13 -61 -17 -31 -23 -52 -17
-57 6 -4 11 -20 13 -37 2 -16 8 -33 14 -36 7 -4 7 -9 -1 -13 -6 -4 -11 -12
-11 -19 0 -6 14 3 30 21 17 18 30 40 30 49 0 9 3 14 6 10 7 -6 44 29 44 42 0
5 9 7 20 4 11 -3 20 -8 20 -12 0 -3 14 -12 30 -19 35 -16 38 -37 9 -72 -36
-44 -109 -162 -109 -176 0 -2 9 0 19 6 23 12 34 0 36 -37 1 -21 0 -21 -19 -5
-11 9 -16 11 -12 5 4 -8 2 -13 -6 -14 -7 -1 -2 -4 12 -9 20 -6 29 -2 46 18 24
27 59 26 88 -3 8 -8 17 -15 20 -15 10 0 111 -65 118 -76 4 -7 27 -22 50 -34
23 -12 48 -29 55 -38 7 -10 13 -13 13 -9 0 11 80 -34 80 -45 0 -5 5 -6 10 -3
6 3 10 1 10 -4 0 -6 3 -11 8 -10 15 2 52 -14 52 -22 0 -5 9 -9 19 -9 11 0 21
-3 23 -7 2 -5 20 -17 42 -28 l38 -19 20 24 c11 14 38 47 61 74 23 27 53 65 68
85 15 20 35 45 46 56 10 11 37 45 60 75 22 30 58 74 80 97 l40 43 41 -20 c22
-11 43 -24 47 -29 3 -5 29 -21 58 -36 28 -14 61 -31 72 -38 98 -60 200 -109
211 -101 7 5 81 88 164 184 176 204 180 210 200 243 8 14 32 50 53 81 20 31
37 61 37 66 0 6 5 10 10 10 6 0 10 4 10 9 0 11 81 152 97 169 6 6 15 22 18 35
4 12 22 56 42 97 19 41 41 89 49 105 7 17 31 70 53 118 22 49 43 104 47 123 3
19 10 36 14 39 5 3 16 31 25 63 9 31 29 93 45 137 15 44 36 106 46 139 10 32
24 64 32 70 58 45 72 66 72 103 0 77 -35 115 -98 105 -52 -7 -73 -43 -71 -122
1 -50 -5 -84 -28 -146 -16 -45 -34 -88 -41 -96 -6 -8 -14 -33 -18 -56 -3 -23
-13 -47 -20 -53 -8 -6 -14 -20 -14 -30 0 -11 -4 -27 -9 -37 -17 -30 -58 -126
-66 -151 -4 -13 -20 -46 -36 -73 -16 -27 -29 -53 -29 -58 0 -5 -25 -58 -57
-117 -31 -59 -71 -137 -90 -173 -18 -36 -48 -82 -66 -102 l-32 -37 -41 33 -42
32 49 74 c27 40 49 76 49 80 0 4 7 14 16 21 9 7 45 73 81 146 36 73 69 136 74
139 5 3 9 14 9 26 0 11 8 32 18 46 10 15 27 49 36 76 13 34 28 54 53 69 65 38
74 112 23 167 -35 37 -78 40 -116 6 -24 -20 -27 -30 -26 -79 1 -38 -3 -59 -13
-67 -8 -7 -15 -17 -15 -22 0 -14 -119 -250 -135 -268 -7 -8 -17 -27 -20 -42
-4 -16 -11 -28 -15 -28 -5 0 -20 -24 -35 -52 -14 -29 -33 -65 -43 -79 -55 -84
-117 -175 -122 -179 -3 -3 -11 -16 -18 -29 -12 -21 -11 -26 14 -52 15 -16 32
-29 37 -29 5 0 36 -20 68 -44 l59 -44 -66 -89 c-84 -114 -119 -156 -176 -216
-27 -26 -48 -52 -48 -57 0 -13 -42 -35 -60 -31 -8 2 -27 12 -42 23 -32 22 -32
24 34 99 25 30 67 79 93 109 25 30 52 62 59 70 7 8 20 27 30 41 15 24 15 26
-6 45 -13 11 -56 42 -95 68 -40 27 -73 51 -73 53 0 7 45 68 53 71 4 2 7 10 7
17 0 7 14 27 30 45 17 18 30 36 30 40 0 5 6 15 13 22 14 14 97 137 97 143 0 6
93 158 100 165 3 3 14 24 24 48 11 23 25 42 32 42 19 0 64 59 64 85 0 44 -31
94 -62 100 -70 16 -136 -35 -124 -96 4 -22 -3 -43 -29 -88 -19 -33 -35 -64
-35 -70 0 -6 -4 -11 -10 -11 -5 0 -10 -6 -10 -13 0 -7 -16 -36 -35 -66 -19
-29 -35 -56 -35 -60 0 -4 -11 -18 -25 -31 -14 -13 -25 -29 -25 -35 0 -7 -10
-23 -23 -36 -13 -13 -44 -55 -70 -94 -58 -85 -85 -122 -114 -152 -38 -39 -40
-37 84 -124 44 -31 70 -56 66 -63 -18 -29 -81 -107 -135 -168 -59 -65 -61 -66
-91 -55 -18 5 -45 20 -62 33 -16 12 -49 31 -72 42 l-43 20 -25 -20 c-25 -19
-105 -121 -105 -132 0 -3 -13 -19 -30 -34 -16 -16 -30 -32 -30 -35 0 -3 -37
-53 -82 -110 -46 -57 -88 -113 -94 -123 -10 -17 -14 -16 -67 14 -31 18 -64 32
-72 32 -8 0 -15 5 -15 10 0 6 -9 10 -19 10 -10 0 -21 6 -24 14 -3 7 -17 16
-31 20 -27 7 -129 66 -134 79 -2 4 -10 7 -18 7 -8 0 -14 4 -14 10 0 5 -11 12
-25 16 -14 3 -34 17 -45 31 -10 13 -21 24 -25 23 -3 0 -13 4 -23 9 -16 9 -16
10 1 16 9 4 17 11 17 16 0 5 10 20 21 33 19 21 25 23 48 14 14 -6 34 -20 44
-31 9 -10 17 -15 17 -11 0 5 4 4 8 -2 4 -6 39 -33 77 -59 39 -27 90 -71 115
-98 25 -27 56 -53 69 -58 31 -12 88 6 102 33 13 24 3 85 -16 104 -17 17 -60
34 -85 34 -29 0 -87 43 -82 60 7 22 50 71 54 61 5 -12 137 -90 165 -97 20 -6
33 2 71 44 63 68 82 91 112 134 44 64 111 138 126 138 17 0 84 -62 84 -77 0
-5 11 -20 25 -33 18 -17 37 -23 71 -24 56 -1 84 26 84 84 0 31 -7 44 -35 69
-23 20 -46 31 -66 31 -31 0 -89 27 -89 42 0 4 27 44 61 88 33 45 59 87 56 93
-2 7 -31 30 -63 52 -33 22 -61 42 -64 45 -3 4 -41 30 -85 60 -44 30 -105 73
-135 95 -30 23 -69 50 -87 61 -87 52 -173 118 -173 132 0 9 14 30 31 48 l31
32 167 -111 c91 -61 200 -136 241 -167 145 -107 196 -140 218 -140 13 0 44 39
102 128 45 70 87 129 91 130 5 2 9 9 9 16 0 7 11 28 25 47 47 62 95 138 95
149 0 5 16 34 35 64 56 88 51 100 -75 186 -28 19 -67 47 -86 62 -52 39 -72 44
-95 19 -10 -11 -19 -23 -19 -25 0 -7 -101 -159 -110 -166 -4 -3 -9 -9 -11 -15
-11 -28 -75 -115 -85 -115 -15 0 -94 58 -94 69 0 5 16 29 36 53 19 23 42 51
50 61 8 10 29 42 46 70 33 55 97 140 110 145 5 2 8 10 8 18 0 8 4 14 9 14 5 0
29 30 53 68 96 146 176 260 206 293 12 12 22 29 22 36 0 7 3 13 8 13 4 0 21
24 37 52 17 28 40 62 53 75 12 13 22 28 22 32 0 5 6 13 13 20 8 6 26 35 41 66
16 30 31 55 35 55 4 0 14 13 24 29 10 17 28 31 45 34 48 10 73 38 79 89 5 42
3 50 -25 78 -35 35 -64 38 -109 10z"/>
<path d="M6461 8229 c-32 -20 -61 -56 -61 -79 -1 -8 -36 -43 -78 -77 -121 -97
-136 -110 -275 -248 -151 -149 -212 -217 -318 -355 -51 -67 -156 -220 -175
-255 -5 -11 -18 -32 -28 -47 -11 -17 -14 -28 -7 -28 6 0 11 7 11 15 0 8 4 15
10 15 5 0 9 -3 8 -7 -1 -5 3 -18 10 -30 7 -13 9 -23 5 -23 -4 0 0 -7 9 -14 17
-12 17 -14 -2 -31 -11 -10 -20 -23 -20 -29 1 -12 50 44 50 57 0 11 169 247
194 272 12 11 30 33 41 49 11 15 31 40 45 55 14 16 41 48 60 72 46 57 359 369
371 369 5 0 9 7 9 15 0 8 4 15 8 15 4 0 27 17 50 38 73 65 96 79 142 86 57 9
78 25 86 64 9 44 -2 74 -33 96 -34 25 -76 27 -112 5z"/>
<path d="M9491 7875 c-31 -36 -80 -132 -99 -195 -42 -140 -40 -120 -47 -580
-4 -285 -9 -381 -22 -440 -9 -41 -20 -79 -25 -85 -4 -5 -8 -21 -8 -36 0 -15
-4 -30 -9 -34 -5 -3 -13 -20 -16 -38 -4 -17 -13 -43 -20 -57 -13 -26 -75 -259
-79 -297 -1 -13 -6 -26 -9 -30 -4 -3 -7 -17 -7 -29 0 -13 -4 -26 -10 -29 -5
-3 -10 -19 -10 -35 0 -16 -7 -36 -16 -44 -8 -9 -17 -24 -19 -35 -2 -10 -15
-37 -29 -60 -14 -22 -26 -45 -26 -50 0 -6 -8 -16 -18 -23 -10 -7 -23 -21 -28
-30 -21 -38 -124 -145 -209 -216 -49 -42 -91 -80 -93 -84 -2 -5 -9 -8 -17 -8
-7 0 -46 -31 -86 -70 -41 -38 -80 -70 -86 -70 -7 0 -13 -4 -13 -9 0 -5 -11
-16 -24 -25 l-25 -16 17 30 c9 16 20 30 24 30 3 0 17 17 29 38 12 20 39 57 60
82 20 25 45 59 55 76 11 18 33 56 51 86 18 30 42 63 53 73 11 10 20 26 20 35
0 9 4 20 9 26 16 17 131 244 131 258 0 7 7 19 15 26 8 7 15 19 15 27 0 8 8 33
19 56 34 78 62 160 77 231 17 80 44 218 50 256 2 14 11 61 19 105 8 44 15 94
16 110 0 17 3 103 5 192 4 153 3 163 -15 173 -18 9 -20 6 -25 -35 -3 -25 -9
-66 -13 -92 -3 -27 -7 -59 -9 -73 -10 -130 -32 -262 -50 -307 -8 -17 -15 -45
-16 -62 -2 -31 -12 -40 -23 -21 -10 17 -76 11 -122 -11 -59 -28 -158 -128
-221 -222 -29 -43 -52 -81 -52 -85 0 -4 -13 -22 -30 -40 -16 -18 -30 -38 -30
-43 0 -13 -26 3 -69 41 -19 17 -49 38 -66 46 -18 8 -41 23 -51 32 -34 32 -81
55 -98 49 -9 -4 -24 -19 -33 -35 -10 -16 -24 -27 -32 -24 -10 3 -12 -2 -8 -20
5 -19 -1 -37 -23 -69 -16 -24 -30 -48 -30 -53 0 -4 -13 -25 -29 -45 -16 -20
-28 -39 -27 -42 2 -12 -48 -75 -200 -251 -68 -78 -80 -88 -110 -88 -35 0 -74
-31 -74 -59 0 -9 -3 -25 -6 -37 -4 -15 4 -31 29 -57 30 -32 40 -37 80 -37 37
0 49 5 66 26 12 15 21 35 21 46 0 11 17 37 38 57 50 51 114 126 164 192 22 30
45 57 52 61 6 4 7 8 3 8 -5 0 8 20 27 44 20 23 36 46 36 50 0 6 38 64 50 76 3
3 6 11 8 19 5 24 43 71 56 71 8 0 21 -10 30 -22 9 -13 14 -16 10 -8 -7 12 -5
13 8 3 13 -12 12 -19 -11 -65 -14 -29 -33 -59 -43 -66 -10 -7 -35 -50 -57 -95
-42 -87 -193 -274 -282 -349 -24 -21 -53 -46 -64 -57 -11 -10 -37 -27 -57 -37
l-37 -17 -203 101 c-112 56 -208 102 -214 102 -5 0 -20 9 -31 19 -12 11 -52
34 -89 51 l-69 31 -72 -78 c-40 -43 -73 -84 -73 -90 0 -7 -4 -13 -9 -13 -4 0
-32 -31 -60 -70 -29 -38 -58 -75 -64 -82 -7 -7 -25 -30 -40 -50 -15 -21 -33
-38 -38 -38 -17 0 -174 64 -177 72 -2 4 -7 8 -12 8 -4 0 -29 10 -56 22 -27 12
-55 23 -63 24 -8 2 -18 9 -22 16 -5 7 -9 9 -9 4 0 -5 -9 -1 -20 9 -11 10 -20
14 -20 10 0 -5 -6 -1 -13 8 -6 10 -25 20 -41 23 -30 5 -90 37 -164 87 -39 26
-57 34 -85 36 -5 1 -6 5 -2 10 3 5 1 12 -4 15 -5 4 -8 -1 -7 -10 3 -18 26 -35
38 -28 4 3 8 0 8 -5 0 -6 -6 -11 -12 -11 -7 -1 -3 -9 10 -19 12 -11 22 -22 22
-26 0 -3 -10 -3 -22 0 l-23 7 23 -17 c12 -9 27 -13 32 -10 6 4 9 1 8 -5 -3
-13 8 -21 103 -77 30 -17 61 -38 69 -45 8 -7 18 -12 22 -11 5 2 8 -2 8 -7 0
-6 6 -10 14 -10 7 0 29 -11 49 -24 19 -13 38 -22 41 -18 3 3 6 0 6 -6 0 -7 6
-12 13 -12 6 0 25 -7 41 -15 16 -9 37 -17 45 -18 21 -4 61 -30 61 -39 0 -4
-11 -3 -25 2 -14 5 -25 7 -25 4 0 -4 -6 -1 -13 5 -8 6 -16 8 -19 6 -3 -3 -30
3 -59 14 -30 11 -63 21 -74 23 -11 2 -37 20 -57 41 -20 20 -43 37 -50 38 -7 1
-22 2 -33 3 -20 1 -55 -28 -55 -46 0 -5 9 -19 20 -30 13 -14 17 -25 10 -32
-14 -14 34 -36 77 -34 20 1 39 -4 41 -10 2 -7 12 -12 23 -12 10 0 19 -5 19
-11 0 -6 6 -9 14 -6 7 3 26 -1 41 -9 27 -14 89 -33 135 -40 14 -3 48 -11 75
-18 28 -8 57 -14 65 -14 8 0 40 -3 70 -6 30 -4 102 -9 159 -12 94 -6 106 -5
118 12 7 10 13 30 13 44 0 28 -19 39 -115 70 -22 7 -50 17 -63 21 l-23 9 20
28 c11 15 34 42 51 61 17 18 38 44 47 57 8 13 22 24 31 24 8 0 64 -25 124 -55
59 -30 114 -55 121 -55 15 0 49 -38 39 -43 -4 -3 -24 -8 -46 -11 -41 -8 -85
-48 -86 -79 0 -21 18 -59 33 -68 13 -9 -50 -27 -93 -28 -18 0 -44 -5 -57 -12
-18 -9 -26 -9 -38 1 -10 9 -19 9 -28 2 -17 -14 -250 -12 -259 2 -5 8 -14 7
-28 -2 -17 -10 -25 -10 -36 -1 -18 15 -52 3 -36 -13 6 -6 8 -18 5 -27 -5 -14
-4 -14 8 1 8 9 25 18 39 20 21 2 25 -1 23 -19 -3 -29 13 -30 20 -2 4 15 11 20
22 15 9 -3 23 -6 31 -6 8 0 11 -6 8 -15 -4 -8 -1 -15 5 -15 6 0 11 7 11 15 0
10 10 15 30 15 17 0 30 -5 30 -12 0 -10 2 -10 9 0 5 8 23 13 42 12 19 -1 36
-1 39 0 3 1 44 4 93 6 49 2 104 11 125 20 20 9 60 20 87 24 174 31 232 48 275
85 29 26 114 65 119 56 3 -5 14 -10 25 -12 10 -2 30 -25 44 -51 14 -26 28 -45
31 -43 2 3 -1 11 -7 17 -15 15 -16 28 -2 28 6 0 10 -3 9 -7 -2 -16 14 -53 22
-53 5 0 9 -6 9 -13 0 -7 7 -22 16 -33 8 -10 12 -13 8 -5 -5 10 -3 12 5 7 7 -5
10 -14 7 -22 -8 -21 4 -44 24 -44 23 0 44 -26 36 -45 -4 -10 2 -19 18 -25 13
-5 28 -15 32 -22 6 -10 4 -11 -7 -3 -8 6 -6 2 4 -7 11 -10 14 -18 8 -18 -7 0
-10 -4 -6 -10 3 -5 13 -6 22 -3 11 4 14 2 9 -5 -4 -6 3 -16 15 -23 17 -9 19
-13 8 -20 -12 -7 -12 -10 0 -21 10 -10 12 -10 7 0 -4 6 -2 12 3 12 6 0 11 -7
11 -15 0 -9 12 -20 26 -25 17 -7 24 -15 20 -25 -3 -8 -1 -15 5 -15 6 0 8 -4 5
-9 -3 -5 1 -14 10 -21 8 -7 12 -20 9 -29 -3 -8 -3 -12 1 -9 3 4 19 -5 34 -20
22 -21 25 -30 16 -41 -9 -12 -8 -14 6 -9 20 8 53 -25 45 -45 -4 -11 1 -14 16
-11 12 2 16 2 10 -2 -20 -9 -15 -23 11 -35 14 -7 22 -17 19 -25 -3 -9 2 -14
15 -14 12 0 24 -4 27 -10 3 -6 -1 -7 -9 -4 -11 4 -16 0 -16 -12 0 -9 3 -14 6
-11 10 9 46 -13 42 -25 -2 -6 11 -25 29 -43 25 -25 32 -40 29 -58 -4 -21 -1
-23 20 -19 14 2 24 0 24 -7 0 -12 33 -7 85 13 60 24 247 84 239 77 -5 -4 -34
-17 -64 -30 -30 -13 -62 -27 -71 -31 -9 -5 -33 -12 -53 -15 -20 -4 -36 -11
-36 -16 0 -5 -9 -9 -20 -9 -11 0 -28 -4 -38 -9 -86 -43 -168 -81 -175 -81 -5
0 -28 -13 -52 -30 -24 -16 -48 -30 -53 -30 -5 0 -16 -8 -25 -18 -9 -10 -37
-28 -62 -41 -25 -12 -45 -27 -45 -32 0 -8 16 -1 81 37 10 6 27 18 37 27 10 10
22 17 25 17 4 0 29 14 55 30 27 17 56 30 65 30 8 0 17 4 19 8 4 10 126 61 243
102 50 17 113 42 140 55 28 13 61 27 75 31 14 3 39 15 56 25 17 11 39 19 48
19 17 0 33 6 81 34 17 10 38 20 48 23 9 3 17 9 17 13 0 4 15 13 33 21 17 7 35
17 38 21 3 5 19 16 36 26 30 17 143 139 143 155 0 5 11 32 24 60 34 76 59 155
53 171 -3 8 -3 17 1 21 4 4 7 10 8 13 0 4 6 21 13 37 7 17 15 48 18 70 3 22
14 59 25 83 11 23 18 49 15 56 -3 8 0 20 8 26 7 6 14 19 14 28 -1 9 19 73 42
142 24 69 50 148 60 175 9 28 22 66 28 85 26 74 43 137 50 180 4 25 10 50 13
55 25 40 43 582 25 740 -11 101 -17 176 -22 285 -3 58 -7 142 -10 187 -3 45
-9 184 -15 308 -5 123 -14 233 -19 243 -5 10 -15 48 -21 85 -21 121 -96 164
-159 92z m-2248 -2281 c18 -9 39 -21 47 -25 8 -5 74 -38 146 -74 73 -36 148
-77 168 -90 20 -14 43 -25 51 -25 8 0 15 -4 15 -10 0 -5 8 -7 18 -3 15 5 14 3
-3 -15 l-20 -21 -70 25 c-38 14 -86 33 -105 43 -92 47 -168 81 -183 81 -8 0
-19 5 -23 11 -4 6 -33 23 -65 38 l-59 27 22 27 c26 32 22 31 61 11z"/>
<path d="M3065 7550 c-49 -32 -104 -72 -122 -89 -18 -17 -37 -31 -42 -31 -5 0
-36 -27 -70 -61 -44 -43 -61 -67 -59 -82 2 -14 10 -21 21 -21 9 1 17 -1 17 -5
0 -3 39 -5 88 -4 88 2 223 -23 287 -52 16 -7 33 -11 37 -9 4 3 8 0 8 -5 0 -6
6 -11 13 -11 41 0 327 -176 407 -250 69 -64 103 -90 117 -90 7 0 13 -3 13 -7
0 -9 38 -32 132 -79 99 -50 96 -41 -4 14 -49 26 -97 55 -108 65 -11 9 -24 17
-29 17 -4 0 -17 8 -28 18 -95 81 -147 121 -262 200 -71 49 -272 152 -295 152
-8 0 -18 5 -21 11 -4 5 -12 8 -18 6 -7 -2 -37 5 -67 15 -37 13 -90 21 -160 23
-58 2 -111 4 -117 4 -39 2 2 56 102 136 28 22 52 43 55 46 3 4 54 39 114 78
61 39 103 71 95 71 -7 -1 -54 -27 -104 -60z"/>
<path d="M4188 6689 c12 -5 29 -6 37 -2 13 4 12 -5 -6 -48 -12 -30 -28 -72
-36 -94 -23 -64 -143 -302 -159 -315 -7 -7 -14 -19 -14 -26 0 -8 -10 -25 -21
-38 -12 -14 -27 -34 -33 -45 -6 -11 -47 -72 -91 -136 -138 -199 -162 -255
-157 -356 5 -87 116 -152 289 -168 59 -6 116 -11 126 -12 14 0 15 -4 6 -22 -6
-12 -19 -30 -28 -40 -10 -13 -16 -38 -16 -77 0 -48 5 -63 24 -84 13 -14 32
-28 42 -31 17 -6 17 -9 -3 -61 l-21 -55 22 -47 c24 -50 89 -102 129 -102 53 0
68 -36 35 -86 -22 -35 -33 -367 -13 -405 7 -13 14 -37 16 -54 4 -45 47 -125
91 -167 66 -64 119 -80 261 -79 68 0 127 3 132 6 5 3 46 8 92 11 46 3 94 9
108 14 46 17 254 50 350 56 52 3 97 7 100 10 6 7 -217 -3 -228 -9 -4 -3 -28
-8 -53 -11 -25 -3 -93 -15 -150 -25 -102 -19 -215 -29 -374 -36 -109 -4 -191
27 -241 93 -18 25 -34 49 -34 55 0 6 -7 19 -16 29 -10 10 -17 35 -17 58 0 22
-3 40 -8 40 -15 0 -22 67 -21 200 2 144 6 176 28 218 8 15 14 39 14 54 0 24
-6 29 -42 38 -79 21 -112 42 -138 92 l-25 47 23 52 c22 53 18 79 -13 79 -8 0
-23 12 -34 26 -30 38 -28 107 4 159 14 22 25 45 25 51 0 14 -45 25 -120 30
-118 7 -147 14 -228 53 -39 18 -82 85 -82 126 0 34 20 105 30 105 4 0 10 13
13 29 6 26 156 263 192 302 8 9 15 19 15 24 0 4 10 22 23 39 57 76 164 289
218 431 21 58 39 107 39 109 0 2 -19 3 -42 3 -34 0 -38 -1 -20 -8z"/>
<path d="M5477 5787 c169 -215 394 -408 598 -514 68 -35 257 -110 295 -117 14
-2 27 -5 29 -5 2 -1 -2 -7 -8 -14 -11 -14 -5 -27 11 -27 5 0 6 5 3 10 -12 19
5 28 34 17 20 -7 27 -15 23 -29 -6 -23 14 -24 22 0 3 9 9 23 12 30 4 7 -2 12
-16 12 -12 0 -30 5 -40 10 -18 10 -60 19 -102 23 -10 1 -18 4 -18 7 0 3 -12 7
-27 8 -16 1 -29 7 -31 12 -2 6 -12 10 -22 10 -10 0 -22 5 -25 11 -4 6 -13 8
-20 5 -8 -3 -15 -2 -17 2 -2 5 -41 27 -88 51 -47 24 -105 57 -130 74 -25 17
-62 42 -82 56 -21 13 -38 28 -38 33 0 4 -5 8 -11 8 -25 0 -324 301 -337 340
-2 6 -10 10 -19 10 -12 0 -11 -4 4 -23z"/>
<path d="M9329 2777 c-137 -51 -215 -196 -194 -363 8 -66 43 -111 110 -143 85
-40 161 -24 229 49 l46 49 0 74 c0 67 -3 78 -30 116 -17 23 -41 46 -54 51 -49
18 -44 46 15 84 42 28 51 59 22 75 -33 17 -107 21 -144 8z"/>
<path d="M5680 2758 c-142 -10 -234 -38 -320 -95 -19 -13 -38 -23 -43 -23 -12
0 -163 -154 -177 -180 -9 -16 -8 -18 5 -14 8 4 15 1 15 -6 0 -6 4 -9 9 -5 5 3
17 -5 25 -17 9 -12 16 -17 16 -10 0 6 5 12 11 12 5 0 8 -4 4 -9 -7 -12 29 -33
39 -24 3 3 6 1 6 -5 0 -7 3 -11 8 -11 23 4 42 -2 37 -11 -5 -8 -12 -7 -23 2
-13 11 -14 11 -10 -2 2 -8 16 -15 30 -15 14 -1 34 -7 44 -15 16 -13 17 -13 10
0 -7 13 -6 13 6 0 20 -23 44 -18 80 17 18 17 62 46 97 65 62 32 69 33 176 33
107 0 114 -1 176 -33 85 -45 152 -111 191 -192 25 -53 32 -82 37 -157 3 -50 9
-94 12 -97 5 -5 38 -13 62 -15 5 -1 6 -5 3 -10 -4 -5 3 -7 14 -4 13 4 26 -1
34 -12 8 -11 18 -15 25 -11 7 5 20 1 29 -7 9 -8 25 -15 35 -16 40 -3 47 -5 47
-13 0 -5 10 1 23 12 21 20 22 29 22 158 0 156 -11 205 -78 336 -55 108 -132
193 -237 265 -68 46 -169 91 -204 91 -15 0 -35 4 -44 9 -25 13 -95 17 -192 9z"/>
<path d="M7682 2758 c-14 -14 -16 -323 -5 -716 6 -238 6 -241 26 -230 11 6 53
11 94 12 40 0 73 4 73 7 0 3 11 5 25 4 14 -2 25 1 25 7 0 6 10 8 24 4 20 -5
26 -1 35 24 l10 30 118 1 c65 0 132 2 148 4 17 2 44 5 60 7 17 2 33 8 38 13 4
6 11 4 17 -5 7 -11 10 -11 10 -2 0 7 5 10 10 7 15 -9 13 248 -2 263 -8 8 -66
12 -194 12 -100 0 -189 3 -198 6 -13 5 -16 26 -16 130 l0 124 261 0 c160 0
268 4 280 10 17 10 19 22 19 143 0 90 -4 137 -12 145 -17 17 -829 17 -846 0z"/>
<path d="M10590 2762 c-25 -2 -49 -7 -54 -13 -6 -5 -24 -9 -40 -9 -42 0 -130
-52 -191 -114 -58 -58 -125 -157 -125 -186 0 -10 -4 -30 -10 -44 -7 -20 -6
-26 4 -26 8 0 17 6 19 13 3 7 6 8 6 1 1 -15 51 -6 73 14 10 8 26 12 38 9 11
-3 18 -2 15 3 -5 7 19 17 60 26 11 2 27 5 35 7 8 1 21 6 28 11 12 7 46 15 83
19 9 1 15 7 12 13 -3 8 2 11 16 7 14 -3 23 0 27 11 7 19 35 21 53 4 10 -9 12
-10 7 -1 -4 7 2 17 14 23 13 7 20 7 20 0 0 -5 14 -1 31 9 18 11 38 17 45 14 8
-3 14 0 14 7 0 7 7 10 16 6 14 -5 15 -4 4 9 -11 14 -10 14 14 5 18 -6 25 -6
21 0 -3 6 2 10 12 10 11 0 24 5 31 12 12 12 24 16 70 23 13 2 26 6 30 9 14 15
-106 92 -167 108 -52 13 -159 23 -211 20z"/>
<path d="M9970 2750 c-14 -5 -65 -21 -115 -35 -185 -55 -230 -70 -237 -80 -11
-15 -9 -277 1 -294 8 -12 18 -13 62 -3 59 14 65 11 72 -35 8 -52 13 -54 104
-44 6 0 14 9 17 19 4 10 13 19 21 19 8 0 12 -4 9 -9 -3 -4 0 -8 5 -8 6 0 11 5
11 11 0 6 7 9 15 5 8 -3 15 -1 15 5 0 6 5 7 10 4 6 -3 10 -2 10 4 0 6 7 8 15
5 8 -4 12 -10 9 -15 -3 -5 2 -6 11 -3 9 4 13 9 11 12 -9 8 15 32 25 26 6 -3 8
82 7 208 l-3 213 -25 2 c-14 1 -36 -3 -50 -7z"/>
<path d="M6546 2743 c-11 -11 -7 -901 5 -908 5 -4 23 -7 39 -7 17 -1 30 -4 30
-8 0 -4 6 -8 13 -7 41 1 58 -4 51 -15 -6 -10 -4 -10 7 -2 8 6 23 9 34 7 11 -3
34 -6 50 -7 17 0 33 -8 36 -16 5 -10 12 2 20 33 7 26 17 47 21 47 4 0 18 -16
32 -36 29 -43 66 -72 66 -52 0 8 3 9 8 3 11 -15 55 -18 45 -2 -4 7 4 5 18 -5
24 -15 26 -15 37 0 8 13 10 13 7 2 -4 -12 6 -15 59 -15 35 0 62 3 60 6 -2 4
12 3 31 -1 19 -4 35 -4 35 0 0 4 12 5 26 2 l26 -5 -18 29 c-23 35 -98 145
-136 198 -15 21 -28 43 -28 47 0 7 46 88 85 150 5 9 21 36 34 60 13 24 71 124
130 221 169 283 157 259 135 275 -14 10 -55 13 -178 11 l-160 -3 -42 -70 c-23
-38 -54 -92 -69 -120 -46 -87 -187 -325 -196 -330 -15 -10 -19 54 -17 278 2
193 1 229 -12 237 -17 11 -273 14 -284 3z"/>
<path d="M4765 2718 c-15 -22 -14 -23 16 -33 17 -6 36 -17 43 -25 16 -21 52
-48 42 -32 -4 6 -2 12 3 12 6 0 11 -5 11 -10 0 -6 6 -10 13 -8 18 4 71 -39 55
-45 -13 -5 33 -27 56 -27 16 0 89 158 82 176 -4 11 -38 14 -155 14 -144 0
-150 -1 -166 -22z"/>
<path d="M2916 1616 c-6 -227 -5 -261 8 -275 14 -13 49 -15 238 -13 122 1 223
4 224 5 2 2 -12 20 -31 40 -37 40 -43 52 -22 42 6 -4 4 0 -5 8 -10 8 -15 17
-11 20 3 4 -1 7 -11 7 -9 0 -15 4 -12 8 2 4 1 14 -5 22 -6 10 -9 11 -9 3 0
-23 -18 -14 -28 15 -6 15 -11 21 -11 14 -1 -7 -5 -11 -10 -8 -5 3 -7 14 -4 25
5 21 -33 55 -50 44 -6 -4 -8 0 -4 10 4 12 2 14 -10 10 -12 -5 -14 -1 -8 16 6
20 4 21 -21 15 -19 -5 -25 -4 -20 5 4 6 2 11 -4 11 -7 0 -10 7 -7 14 4 11 1
13 -11 9 -9 -3 -14 -2 -10 2 5 5 -1 15 -12 22 -11 8 -18 19 -14 24 3 5 -8 14
-25 20 -26 9 -30 15 -27 36 3 15 0 26 -10 30 -7 3 -11 10 -7 16 4 6 1 7 -7 2
-8 -5 -18 -1 -27 10 -7 11 -13 15 -14 9 -1 -5 -4 2 -8 16 -4 14 -11 -92 -15
-234z"/>
</g>
</svg>
